<?xml version="1.0" encoding="utf-8"?>
<!-- Generator: Adobe Illustrator 25.1.0, SVG Export Plug-In . SVG Version: 6.00 Build 0)  -->
<svg version="1.1" id="Layer_1" xmlns="http://www.w3.org/2000/svg" xmlns:xlink="http://www.w3.org/1999/xlink" x="0px" y="0px"
	 viewBox="0 0 460 426" style="enable-background:new 0 0 460 426;" xml:space="preserve">
<style type="text/css">
	.st0{fill:#231F20;}
</style>
<g>
	<path class="st0" d="M211.05,283.98c43.88,0.93,65.98-47.31,100.22-31.12c20.93,12.14,0.16,25.44-9.96,65.67
		c-8.71,29.57-5.91,47.52-36.1,47.31c-28.24,0-163.39-58.51-135.38-97.11C143.51,254.41,168.1,282.62,211.05,283.98z"/>
	<path class="st0" d="M233.02,190.49c-3.8,57.19,71.19,21.19,103.53,32.43s28.94,36.17,6.47,66.47c-8,11.4-8.51,23.66-0.6,28.26
		c21.7,11.57,72.09-66.04,68.68-115.4c-3.4-49.36-24.44-53.73-49.02-30.3c-21.79,20.77-61.58,29.55-77.96,16.68
		c-16.68-13.11-0.68-19.4-13.11-31.83C263.18,148.94,235.72,143.76,233.02,190.49z"/>
	<path class="st0" d="M197.66,153.51c22.13-1.36,6.64-55.66,60.26-43.23c43.23,11.23,42.21,84.43,85.45,39.83
		c35.06-38.47-6.65-59.23-43.23-77.36c-38.47-19.06-97.02-22.04-122.55,31.4C169.74,123.55,173.49,153.51,197.66,153.51z"/>
	<path class="st0" d="M123.55,214.09c37.99-0.01,73.52,60.97,100.72,36.01c17.13-18.72-28.16-19.2-63.21-86.63
		c-10.56-21.87,6.72-40.6-19.2-45.88c-36.01-4.32-117.27,102.96-86.18,120.31C77.52,250.1,95.16,216.01,123.55,214.09z"/>
</g>
</svg>
